<svg xmlns="http://www.w3.org/2000/svg" width="256" height="256" viewBox="0 0 50 50"><path d="M24.75 1.344c-.535.105-.89.64-1.937 2.062-1.868 2.535-5.348 7.254-9.625 9.188-.813.367-1.31 1.129-1.25 1.969.082 1.187 2.687 3.003 6.218 2.78 1.11 1.552 3.063 2.126 4.532 2.126.906 0 1.73-.176 2.375-.532 2.222 1.032 5.87.395 6.937-1.593.313.047.621.062.938.062 2.675 0 5.05-1.75 5.124-2.843.06-.844-.437-1.649-1.25-2-3.617-1.575-7.34-6.36-9.343-8.938C26.03 1.777 25.676 1.344 25 1.344c-.086 0-.172-.016-.25 0M16.156 19.28c-2.86 2.684-5.937 4.758-8.093 5.782-.989.468-1.602 1.425-1.532 2.406.059.793 2.203 4.468 7.469 4.468.36 0 .719-.027 1.094-.062 1.566 1.383 3.695 2.188 5.937 2.188 1.492 0 2.907-.36 4.032-1 3.324 1.492 7.062 1.039 9.437-1.094.395.031.781.062 1.156.062 5.617 0 7.746-3.62 7.813-4.593.066-.989-.52-1.891-1.532-2.375-2.207-1.04-5.335-3.086-8.156-5.688a9 9 0 0 1-.843.031h-.032c-1.242 1.246-3.226 2-5.406 2-.84 0-1.637-.09-2.375-.312-.742.261-1.574.375-2.437.375-1.684 0-3.868-.563-5.438-2.094a11 11 0 0 1-1.094-.094M10.72 33.5c-2.735 2.277-5.383 4.082-7.594 5.125-1.187.566-1.863 1.617-1.781 2.781.074 1.016 2.418 5 8.219 5 .574 0 1.167-.047 1.78-.125 2.516 1.692 5.587 2.594 8.907 2.594 1.613 0 3.195-.2 4.75-.625 1.664.426 3.258.625 4.719.625 2.875 0 5.363-.793 7.593-2.437.344.019.66.035 1 .03 5.395 0 10.07-2.73 10.344-5 .14-1.148-.574-2.284-1.812-2.874-2.551-1.196-5.207-2.914-7.782-5-1.011.273-2.14.437-3.406.437-.164 0-.332.004-.5 0-1.683 1.242-3.812 1.907-6.062 1.907-1.32 0-2.66-.235-3.938-.688-1.234.527-2.656.813-4.125.813-2.433 0-4.742-.754-6.593-2.126-.153.004-.29 0-.438 0-1.21 0-2.312-.156-3.281-.437"/></svg>